<?xml version="1.0" encoding="utf-8"?>
<!-- Generator: Adobe Illustrator 22.0.0, SVG Export Plug-In . SVG Version: 6.00 Build 0)  -->
<svg version="1.1" id="Layer_1" xmlns="http://www.w3.org/2000/svg" xmlns:xlink="http://www.w3.org/1999/xlink" x="0px" y="0px"
	 viewBox="0 0 336.6 69.1" style="enable-background:new 0 0 336.6 69.1;" xml:space="preserve">
<style type="text/css">
	.st0{fill:#E43D4F;}
	.st1{fill:#FFFFFF;}
</style>
<g>
	<polygon class="st0" points="36.9,31.9 40.5,33 41.6,33.3 44.8,29.7 36.8,31.8 	"/>
	<polygon class="st0" points="20.1,31.9 20.2,31.8 12.1,29.7 15.4,33.3 16.4,33 	"/>
	<path class="st0" d="M55.2,32.2c-0.4-1.1-0.7-2.2-0.9-3.2c0-0.1-0.1-0.2-0.1-0.2c0-0.1,0-0.1,0-0.1l0.7-6.7l-0.4-1.7
		c0,0,0.6-4.1,0.5-4.2s-1.1-2.3-1.4-2.9c-0.1-0.4-1.5-8.4-6.7-13.2c0,0-2.5-0.2-4.2,6.5c-0.3,1.2-0.9,1.9-2.2,2
		c-1.3,0-6.4-1-9.7-0.2c-2.1,0.6-2.7,0.5-2.7,0.5s-0.5,0.1-2.7-0.5c-3.3-0.8-8.4,0.2-9.7,0.2s-1.8-0.8-2.2-2C11.9-0.2,9.4,0,9.4,0
		C4.3,4.8,2.8,12.8,2.7,13.2c-0.3,0.7-1.3,2.8-1.4,2.9s0.5,4.2,0.5,4.2L1.4,22l0.7,6.6c-0.2,1.1-0.7,2.7-1.1,4c-0.5,1.4-1,2.5-1,2.5
		s0,1.2,0.1,2.6c0.1,1.4,0.2,3,0.4,4.2c2.7,1.4,5.7,4.4,5.7,4.4s2.4,1.5,4.4,3.6c0.3-0.5,0.6-1.2,0.8-1.8c0.4-1,0.7-2.1,0.7-3.3
		c0-0.7,0-1.4-0.1-2.1c-0.1-0.4-0.2-0.7-0.3-1.1c-0.7-2.2,0.1-1,0.8,1.4c0.2,0.5,0.3,1,0.4,1.6c0.2,0.8,0.4,1.7,0.4,2.6
		c0.1,0.6,0.1,1.2,0,1.8c0,0.6-0.1,1.2-0.3,1.7c-0.2,0.6-0.5,1.1-0.9,1.5c0.2,0.4,0.5,0.8,0.6,1.3c0,0.1,0.1,0.3,0.1,0.4
		c0.9,1.9,1.2,4,1.2,4l1.4,1.5l0,0l0,0c-0.1,1.1,0,5.7,0,5.7s0,0.2,0.1,0.6c0.2,1,0.7,3.1,1.2,3.4c0.2-0.4,0.7-1.5,1.2-2.8
		c0.6-1.4,1.2-3.1,1.6-4.5l0.4-1.1l0.2,1.3c0,0.8-0.1,1.4-0.1,1.4s2,3.2,2.7,3.3c0.1,0,0.1,0,0.2,0c0.6,0.1,0.9,0.1,0.9,0.1
		s0-0.3,0.1-0.8c0.2-1.3,0.7-3.8,1.1-4.4c0.2,0.5,0.4,2.5,0.6,3.9c0.1,0.9,0.2,1.7,0.2,1.7h2.1H30c0,0,0.1-0.7,0.2-1.7
		c0.2-1.5,0.5-3.4,0.6-3.9c0.3,0.6,0.8,3,1,4.3l0,0c0.1,0.5,0.1,0.8,0.1,0.8s0.3,0,0.9-0.1h0.1c0.7-0.1,2.7-3.3,2.7-3.3
		s0.3-0.6,0.3-1.3l0.2-1.3l0.4,1.1c0.4,1.4,1,3.1,1.6,4.5c0.5,1.3,1,2.4,1.2,2.7c0.5-0.3,1-2.4,1.2-3.4c0.1-0.3,0.1-0.6,0.1-0.6
		s0-4.6,0-5.7l0,0l1.4-1.5c0,0,0.4-2,1.3-4l0,0c0.1-0.2,0.1-0.3,0.1-0.4c0.2-0.6,0.5-1.1,0.9-1.7c-0.2-0.3-0.4-0.6-0.5-0.9
		c-0.7-1.7-0.4-4.1,0.1-6.1c0.2-0.8,0.4-1.6,0.7-2.3c0.7-2,1.3-2.9,0.6-0.9c-0.1,0.2-0.1,0.4-0.2,0.6c-0.2,0.9-0.3,1.9-0.2,2.8
		c0.1,1.1,0.4,2.2,0.7,3.1c0.2,0.5,0.4,1,0.6,1.5c1.9-1.9,4-3.2,4-3.2s3-3,5.7-4.4c0,0,0,0,0.1,0c0-0.1,0-0.1,0-0.2
		c0.2-1.1,0.3-2.4,0.4-3.6c0.1-1.6,0.1-3,0.1-3S55.8,33.8,55.2,32.2z M6.5,12.1c0,0,0.2-4.9,2.8-7.9c0,0-1.2,3.9-1,5.3
		c0.1,0.4,0.7,0.7,2.6-0.2c0,0-0.8,1.8-2.2,2.6C7.2,12.6,6.5,12.1,6.5,12.1z M28.1,44.8C28.1,44.8,28.2,44.8,28.1,44.8
		c0.2-0.1,1-0.4,2.2-1.7c0.8,0.6,1.3,2,1.6,3.5c0.3,1.3,0.4,2.6,0.5,3.6s0.1,1.6,0.1,1.6l-2.6,3.6l-0.7-0.7l-1-1l-1.1,1.1l-0.6,0.6
		l-2.7-3.6c0,0,0-0.7,0.1-1.6c0.1-1,0.2-2.4,0.5-3.6c0.3-1.5,0.8-2.9,1.6-3.5C27.1,44.4,27.9,44.7,28.1,44.8L28.1,44.8z M47.8,9.5
		c0.3-1.5-1-5.3-1-5.3c2.5,3,2.8,7.9,2.8,7.9s-0.8,0.5-2.2-0.2c-1.5-0.7-2.2-2.6-2.2-2.6C47.1,10.2,47.7,9.9,47.8,9.5z M10,30.4
		c-1.6-2.4-2.4-3.3-2.4-3.3s0-0.1-0.1-0.3v-0.1c0,0,0.1,0,0.2,0c0,0,14.8,4.7,16.6,4.4c0-0.1,1.4-1.8,1-3.7c0,0,0,0,0-0.1
		c0.1,0.1,0.5,0.4,0.8,1c0.3,0.9,0.4,2.2,0,3.9c-0.8,4.2-5,6.6-6.3,8.3c-0.1,0.2-0.2,0.3-0.3,0.5c-0.4,1.2-0.3,1.4-0.3,1.5
		c-0.1-0.1-0.9-1-0.4-2c0.5-1.1,2.5-3.1,4.3-5.1c0.7-0.8,1.4-2.3,1.1-2.9c-0.1-0.2-0.4-0.3-0.8-0.2c-1.2,0.5-5.3,1.8-7.1,2.3
		c-0.5,0.2-0.8,0.3-0.8,0.3S13.3,34.9,10,30.4z M41.1,35.1c0,0-0.3-0.1-0.8-0.3c-1.8-0.6-5.9-1.9-7.1-2.3c-0.4-0.2-0.7-0.1-0.8,0.2
		c-0.3,0.6,0.3,2.1,1.1,2.9c1.8,1.9,3.8,4,4.3,5.1c0.5,1-0.3,1.9-0.4,2c0,0,0.1-0.3-0.3-1.5c-0.1-0.2-0.2-0.3-0.3-0.5
		c-1.3-1.8-5.5-4.2-6.3-8.3c-0.3-1.7-0.2-3,0-3.9c0.4-1.4,1.1-1.9,1.2-2c-0.2,0.3-0.3,0.6-0.4,0.9c0,0,0,0,0,0.1
		c-0.5,1.9,0.9,3.6,0.9,3.7c1.7,0.3,14.7-3.8,16.4-4.3c0,0.2,0,0.4,0.1,0.6c-0.3,0.4-1,1.4-2.1,3C43.3,34.9,41.1,35.1,41.1,35.1z"/>
</g>
<g>
	<path class="st1" d="M105.9,50.4c0,0.9-0.2,1-1,1h-4.6c-0.8,0-1-0.1-1-1V36.6h-9.4v13.7c0,0.9-0.2,1-1,1h-4.6c-0.8,0-1-0.1-1-1
		V18.7c0-0.9,0.2-1,1-1h4.6c0.8,0,1,0.1,1,1v12.6h9.4V18.7c0-0.9,0.2-1,1-1h4.6c0.8,0,1,0.1,1,1V50.4z"/>
	<path class="st1" d="M132.5,50.4c0,0.9-0.1,1-1,1h-16.2c-0.8,0-1-0.1-1-1V18.7c0-0.9,0.2-1,1-1h16.2c1,0,1.2,0.1,1.2,0.5
		c0,0.2,0,0.3-0.1,0.7l-0.9,3.3c-0.2,0.7-0.7,0.8-1.1,0.8h-9.6v8.1h8.4c0.9,0,1,0.1,1,1v3.3c0,0.9-0.2,1-1,1h-8.4v9.7h10.5
		c0.9,0,1,0.1,1,1V50.4z"/>
	<path class="st1" d="M157.4,50.5c-0.2,0.8-0.3,0.9-1.1,0.9H140c-0.8,0-1-0.1-1-1V18.7c0-0.9,0.2-1,1-1h4.6c0.8,0,1,0.1,1,1v26.8
		h11.9c0.7,0,0.9,0.2,0.9,0.6c0,0.1-0.1,0.4-0.1,0.6L157.4,50.5z"/>
	<path class="st1" d="M182.5,50.5c-0.2,0.8-0.3,0.9-1.1,0.9h-16.3c-0.8,0-1-0.1-1-1V18.7c0-0.9,0.2-1,1-1h4.6c0.8,0,1,0.1,1,1v26.8
		h11.9c0.7,0,0.9,0.2,0.9,0.6c0,0.1,0,0.4-0.1,0.6L182.5,50.5z"/>
	<path class="st1" d="M211.8,50.4c0,0.9-0.2,1-1,1h-4.6c-0.8,0-1-0.1-1-1V36.6h-9.4v13.7c0,0.9-0.2,1-1,1h-4.6c-0.8,0-1-0.1-1-1
		V18.7c0-0.9,0.2-1,1-1h4.6c0.8,0,1,0.1,1,1v12.6h9.4V18.7c0-0.9,0.2-1,1-1h4.6c0.8,0,1,0.1,1,1V50.4z"/>
	<path class="st1" d="M231.1,52.3c-7.6,0-12.3-5.8-12.3-17.7c0-12,4.7-17.7,12.3-17.7c7.6,0,12.3,5.8,12.3,17.7
		C243.4,46.5,238.8,52.3,231.1,52.3z M236.4,34.6c0-7.7-1.6-12.6-5.3-12.6c-3.7,0-5.3,4.9-5.3,12.6c0,7.7,1.6,12.5,5.3,12.5
		C234.8,47.1,236.4,42.3,236.4,34.6z"/>
	<path class="st1" d="M273.6,40c0,7.3-2.6,12.3-11.9,12.3c-9.3,0-11.9-4.9-11.9-12.3V18.7c0-0.9,0.2-1,1-1h4.6c0.8,0,1,0.1,1,1V40
		c0,3.5,0.2,6.9,5.2,6.9c5,0,5.2-3.4,5.2-6.9V18.7c0-0.9,0.2-1,1-1h4.6c0.8,0,1,0.1,1,1V40z"/>
	<path class="st1" d="M304.7,50.4c0,0.9-0.1,1-1,1h-3.3c-0.7,0-0.8-0.1-1.1-0.7l-9-16.8c-1.5-2.8-2.3-4.5-2.8-6.7h-0.1
		c0,0.6,0.1,3.2,0.1,5.4v17.7c0,0.9-0.2,1-1,1h-3.6c-0.8,0-1-0.1-1-1V18.7c0-0.9,0.2-1,1-1h4c0.7,0,0.8,0.1,1.1,0.6l8.1,15.3
		c1.4,2.6,2.3,5.1,2.9,7.1h0.1c0-1.6-0.1-5-0.1-6.4V18.7c0-0.9,0.2-1,1-1h3.6c0.8,0,1,0.1,1,1V50.4z"/>
	<path class="st1" d="M322.2,17.7c9.4,0,14.3,3.1,14.3,16.7c0,14.1-5.7,17-14.5,17h-7.5c-0.8,0-1-0.2-1-1V18.7c0-0.9,0.2-1,1.1-1
		H322.2z M321.9,46.1c5.6,0,7.6-2.4,7.6-11.8c0-8.8-2.1-11.3-7.6-11.3h-1.8v23.1H321.9z"/>
</g>
</svg>
