<?xml version="1.0" encoding="utf-8"?>
<!-- Generator: Adobe Illustrator 22.0.0, SVG Export Plug-In . SVG Version: 6.00 Build 0)  -->
<svg version="1.1" id="Layer_1" xmlns="http://www.w3.org/2000/svg" xmlns:xlink="http://www.w3.org/1999/xlink" x="0px" y="0px"
	 viewBox="0 0 56.5 69.1" style="enable-background:new 0 0 56.5 69.1;" xml:space="preserve">
<style type="text/css">
	.st0{fill:#E43D4F;}
</style>
<g>
	<polygon class="st0" points="37,31.9 40.6,33 41.7,33.3 44.9,29.7 36.9,31.8 	"/>
	<polygon class="st0" points="20.2,31.9 20.3,31.8 12.2,29.7 15.5,33.3 16.5,33 	"/>
	<path class="st0" d="M55.3,32.2c-0.4-1.1-0.7-2.2-0.9-3.2c0-0.1-0.1-0.2-0.1-0.2c0-0.1,0-0.1,0-0.1L55,22l-0.4-1.7
		c0,0,0.6-4.1,0.5-4.2c-0.1-0.1-1.1-2.3-1.4-2.9c-0.1-0.4-1.5-8.4-6.7-13.2c0,0-2.5-0.2-4.2,6.5c-0.3,1.2-0.9,1.9-2.2,2
		c-1.3,0-6.4-1-9.7-0.2c-2.1,0.6-2.7,0.5-2.7,0.5s-0.5,0.1-2.7-0.5c-3.3-0.8-8.4,0.2-9.7,0.2c-1.3,0-1.8-0.8-2.2-2
		C12-0.2,9.5,0,9.5,0C4.4,4.8,2.9,12.8,2.8,13.2c-0.3,0.7-1.3,2.8-1.4,2.9c-0.1,0.1,0.5,4.2,0.5,4.2L1.5,22l0.7,6.6
		c-0.2,1.1-0.7,2.7-1.1,4c-0.5,1.4-1,2.5-1,2.5s0,1.2,0.1,2.6c0.1,1.4,0.2,3,0.4,4.2c2.7,1.4,5.7,4.4,5.7,4.4s2.4,1.5,4.4,3.6
		c0.3-0.5,0.6-1.2,0.8-1.8c0.4-1,0.7-2.1,0.7-3.3c0-0.7,0-1.4-0.1-2.1c-0.1-0.4-0.2-0.7-0.3-1.1c-0.7-2.2,0.1-1,0.8,1.4
		c0.2,0.5,0.3,1,0.4,1.6c0.2,0.8,0.4,1.7,0.4,2.6c0.1,0.6,0.1,1.2,0,1.8c0,0.6-0.1,1.2-0.3,1.7c-0.2,0.6-0.5,1.1-0.9,1.5
		c0.2,0.4,0.5,0.8,0.6,1.3c0,0.1,0.1,0.3,0.1,0.4c0.9,1.9,1.2,4,1.2,4l1.4,1.5l0,0c0,0,0,0,0,0c-0.1,1.1,0,5.7,0,5.7s0,0.2,0.1,0.6
		c0.2,1,0.7,3.1,1.2,3.4c0.2-0.4,0.7-1.5,1.2-2.8c0.6-1.4,1.2-3.1,1.6-4.5l0.4-1.1l0.2,1.3c0,0.8-0.1,1.4-0.1,1.4s2,3.2,2.7,3.3
		c0.1,0,0.1,0,0.2,0c0.6,0.1,0.9,0.1,0.9,0.1s0-0.3,0.1-0.8c0.2-1.3,0.7-3.8,1.1-4.4c0.2,0.5,0.4,2.5,0.6,3.9
		c0.1,0.9,0.2,1.7,0.2,1.7l2.1,0l2.1,0c0,0,0.1-0.7,0.2-1.7c0.2-1.5,0.5-3.4,0.6-3.9c0.3,0.6,0.8,3,1,4.3c0,0,0,0,0,0
		c0.1,0.5,0.1,0.8,0.1,0.8s0.3,0,0.9-0.1c0,0,0.1,0,0.1,0c0.7-0.1,2.7-3.3,2.7-3.3S36,62.7,36,62l0.2-1.3l0.4,1.1
		c0.4,1.4,1,3.1,1.6,4.5c0.5,1.3,1,2.4,1.2,2.7c0.5-0.3,1-2.4,1.2-3.4c0.1-0.3,0.1-0.6,0.1-0.6s0-4.6,0-5.7l0,0l1.4-1.5
		c0,0,0.4-2,1.3-4c0,0,0,0,0,0c0.1-0.2,0.1-0.3,0.1-0.4c0.2-0.6,0.5-1.1,0.9-1.7c-0.2-0.3-0.4-0.6-0.5-0.9c-0.7-1.7-0.4-4.1,0.1-6.1
		c0.2-0.8,0.4-1.6,0.7-2.3c0.7-2,1.3-2.9,0.6-0.9c-0.1,0.2-0.1,0.4-0.2,0.6c-0.2,0.9-0.3,1.9-0.2,2.8c0.1,1.1,0.4,2.2,0.7,3.1
		c0.2,0.5,0.4,1,0.6,1.5c1.9-1.9,4-3.2,4-3.2s3-3,5.7-4.4c0,0,0,0,0.1,0c0-0.1,0-0.1,0-0.2c0.2-1.1,0.3-2.4,0.4-3.6
		c0.1-1.6,0.1-3,0.1-3S55.9,33.8,55.3,32.2z M6.6,12.1c0,0,0.2-4.9,2.8-7.9c0,0-1.2,3.9-1,5.3c0.1,0.4,0.7,0.7,2.6-0.2
		c0,0-0.8,1.8-2.2,2.6C7.3,12.6,6.6,12.1,6.6,12.1z M28.2,44.8C28.2,44.8,28.3,44.8,28.2,44.8c0.2-0.1,1-0.4,2.2-1.7
		c0.8,0.6,1.3,2,1.6,3.5c0.3,1.3,0.4,2.6,0.5,3.6c0.1,1,0.1,1.6,0.1,1.6L30,55.4l-0.7-0.7l-1-1l-1.1,1.1l-0.6,0.6l-2.7-3.6
		c0,0,0-0.7,0.1-1.6c0.1-1,0.2-2.4,0.5-3.6c0.3-1.5,0.8-2.9,1.6-3.5C27.2,44.4,28,44.7,28.2,44.8C28.2,44.8,28.2,44.8,28.2,44.8z
		 M47.9,9.5c0.3-1.5-1-5.3-1-5.3c2.5,3,2.8,7.9,2.8,7.9s-0.8,0.5-2.2-0.2c-1.5-0.7-2.2-2.6-2.2-2.6C47.2,10.2,47.8,9.9,47.9,9.5z
		 M10.1,30.4c-1.6-2.4-2.4-3.3-2.4-3.3S7.7,27,7.6,26.8c0,0,0-0.1,0-0.1c0,0,0.1,0,0.2,0c0,0,14.8,4.7,16.6,4.4c0-0.1,1.4-1.8,1-3.7
		c0,0,0,0,0-0.1c0.1,0.1,0.5,0.4,0.8,1c0.3,0.9,0.4,2.2,0,3.9c-0.8,4.2-5,6.6-6.3,8.3c-0.1,0.2-0.2,0.3-0.3,0.5
		c-0.4,1.2-0.3,1.4-0.3,1.5c-0.1-0.1-0.9-1-0.4-2c0.5-1.1,2.5-3.1,4.3-5.1c0.7-0.8,1.4-2.3,1.1-2.9c-0.1-0.2-0.4-0.3-0.8-0.2
		c-1.2,0.5-5.3,1.8-7.1,2.3c-0.5,0.2-0.8,0.3-0.8,0.3S13.4,34.9,10.1,30.4z M41.2,35.1c0,0-0.3-0.1-0.8-0.3
		c-1.8-0.6-5.9-1.9-7.1-2.3c-0.4-0.2-0.7-0.1-0.8,0.2c-0.3,0.6,0.3,2.1,1.1,2.9c1.8,1.9,3.8,4,4.3,5.1c0.5,1-0.3,1.9-0.4,2
		c0,0,0.1-0.3-0.3-1.5c-0.1-0.2-0.2-0.3-0.3-0.5c-1.3-1.8-5.5-4.2-6.3-8.3c-0.3-1.7-0.2-3,0-3.9c0.4-1.4,1.1-1.9,1.2-2
		c-0.2,0.3-0.3,0.6-0.4,0.9c0,0,0,0,0,0.1c-0.5,1.9,0.9,3.6,0.9,3.7c1.7,0.3,14.7-3.8,16.4-4.3c0,0.2,0,0.4,0.1,0.6
		c-0.3,0.4-1,1.4-2.1,3C43.4,34.9,41.2,35.1,41.2,35.1z"/>
</g>
</svg>
